<svg xmlns="http://www.w3.org/2000/svg" width="702.463" height="671.635" viewBox="0 0 702.463 671.635">
    <defs>
        <style>
            .cls-1{fill:#fafbff}.cls-2{fill:#e5e9ed}.cls-3{fill:#fff}.cls-10,.cls-3,.cls-4,.cls-9{stroke:#bec8d2}.cls-12,.cls-18,.cls-21,.cls-27,.cls-29,.cls-3,.cls-31,.cls-4,.cls-7,.cls-9{stroke-miterlimit:10}.cls-10,.cls-11,.cls-12,.cls-18,.cls-21,.cls-27,.cls-29,.cls-31,.cls-4,.cls-7,.cls-9{fill:none}.cls-5{fill:#bec8d2}.cls-6{fill:#174159}.cls-11,.cls-12,.cls-18,.cls-7{stroke:#174159}.cls-10,.cls-11,.cls-7,.cls-9{stroke-linecap:round}.cls-8{fill:#f2f2f2}.cls-10,.cls-11{stroke-linejoin:round}.cls-12{stroke-width:.75px}.cls-13{fill:#fae54e}.cls-14{fill:#2d80ea}.cls-15{fill:#e148be}.cls-16{fill:#423eaa}.cls-17{fill:#bba6ef}.cls-19{opacity:.2}.cls-20{fill:#10aee5}.cls-21{stroke:#f2f2f2}.cls-21,.cls-27,.cls-29,.cls-31{stroke-width:.5px}.cls-22{fill:#b7b4f8}.cls-23{fill:#5620d8}.cls-24{fill:#2e546a}.cls-25{fill:#428dec}.cls-26{fill:#707070}.cls-27{stroke:#000}.cls-28{fill:#784de0}.cls-29{stroke:#5620d8}.cls-30{fill:#5799ee}.cls-31{stroke:#2d80ea}.cls-32{fill:#63c8eb}
        </style>
    </defs>
    <g id="_465633-PFZWDG-339" data-name="465633-PFZWDG-339" transform="translate(63.187 206.441)">
        <g id="BACKGROUND">
            <path id="Path_5888" d="M215.362-13.074c65.1 0 58.355-72.577 101.321-29.872 10.44 10.377 53.1 25.356 68.035 41.789 45.928 50.55 107.805 123.44 107.805 173.118 0 130.728-84.108 379.82-209.608 325.953S5.571 453.675-17.727 348.942c0-73.076 74.549-319.355 126.74-362.9 40.909-34.13 48.698.884 106.349.884z" class="cls-1" data-name="Path 5888" transform="rotate(-110 229.414 159.212)"/>
        </g>
        <g id="OBJECTS" transform="translate(-42.141 -118.428)">
            <path id="Path_5814" d="M491.557 405.994c0 2.657-96.626 4.814-215.814 4.814S59.93 408.651 59.93 405.994s96.592-4.814 215.814-4.814 215.813 2.157 215.813 4.814z" class="cls-2" data-name="Path 5814" transform="translate(5.327 47.28)"/>
            <path id="Path_5815" d="M441.359 428.949c-9.572-20.165-47.325-38.5-24.65-63.959s-49.608-53.945-16.441-77.823c36.527-26.308 17.645-63.846 41.092-63.846z" class="cls-3" data-name="Path 5815" transform="translate(50.223 23.19)"/>
            <path id="Path_5816" d="M435.4 428.949c9.56-20.165 47.325-38.5 24.639-63.959s49.585-53.945 16.441-77.823c-36.516-26.308-17.633-63.846-41.08-63.846z" class="cls-3" data-name="Path 5816" transform="translate(56.182 23.19)"/>
            <path id="Path_5817" d="M439.192 395.953c0-28.318-31.792-33.813-31.792-33.813" class="cls-4" data-name="Path 5817" transform="translate(52.389 41.992)"/>
            <path id="Path_5818" d="M441.359 344.062c0-30.9-30.282-54.5-49.959-52.832" class="cls-4" data-name="Path 5818" transform="translate(50.222 32.376)"/>
            <path id="Path_5819" d="M437.3 291.848C437.3 259.9 421.34 244 421.34 244" class="cls-4" data-name="Path 5819" transform="translate(54.277 25.991)"/>
            <path id="Path_5820" d="M435.4 395.953c0-28.318 31.792-33.813 31.792-33.813" class="cls-4" data-name="Path 5820" transform="translate(56.182 41.992)"/>
            <path id="Path_5821" d="M435.4 344.062c0-30.9 30.282-54.5 49.959-52.832" class="cls-4" data-name="Path 5821" transform="translate(56.182 32.376)"/>
            <path id="Path_5822" d="M435.4 291.848C435.4 259.9 451.353 244 451.353 244" class="cls-4" data-name="Path 5822" transform="translate(56.182 25.991)"/>
            <path id="Path_5823" d="M64.6 428.949c9.572-20.165 47.325-38.5 24.65-63.959s49.585-53.945 16.441-77.823C69.164 260.858 88.047 223.32 64.6 223.32z" class="cls-3" data-name="Path 5823" transform="translate(5.959 23.19)"/>
            <path id="Path_5824" d="M70.556 428.949c-9.56-20.165-47.325-38.5-24.639-63.959s-49.585-53.945-16.441-77.823c36.516-26.308 17.69-63.846 41.08-63.846z" class="cls-3" data-name="Path 5824" transform="translate(.003 23.19)"/>
            <path id="Path_5825" d="M64.6 395.953c0-28.318 31.792-33.813 31.792-33.813" class="cls-4" data-name="Path 5825" transform="translate(5.959 41.992)"/>
            <path id="Path_5826" d="M64.6 344.062c0-30.9 30.282-54.5 49.959-52.832" class="cls-4" data-name="Path 5826" transform="translate(5.959 32.376)"/>
            <path id="Path_5827" d="M64.6 291.848C64.6 259.9 80.564 244 80.564 244" class="cls-4" data-name="Path 5827" transform="translate(5.959 25.991)"/>
            <path id="Path_5828" d="M68.392 395.953c0-28.318-31.792-33.813-31.792-33.813" class="cls-4" data-name="Path 5828" transform="translate(2.167 41.992)"/>
            <path id="Path_5829" d="M70.559 344.062c0-30.9-30.282-54.5-49.959-52.832" class="cls-4" data-name="Path 5829" transform="translate(0 32.376)"/>
            <path id="Path_5830" d="M66.5 291.848C66.5 259.885 50.6 244 50.6 244" class="cls-4" data-name="Path 5830" transform="translate(4.063 25.991)"/>
            <path id="Path_5831" d="M137.913 176.757a35.132 35.132 0 0 0-.568-6.222 3.032 3.032 0 0 1 1.465-3.134l4.882-2.816a3.032 3.032 0 0 0 1.135-4.133l-6.869-11.888a3.02 3.02 0 0 0-4.133-1.135l-4.882 2.816a3 3 0 0 1-3.406-.3 35.119 35.119 0 0 0-10.787-6.234 3.009 3.009 0 0 1-1.976-2.827v-5.677a3.02 3.02 0 0 0-3.032-3.032H95.97a3.032 3.032 0 0 0-3.032 3.032v5.677a3.009 3.009 0 0 1-1.964 2.827 34.858 34.858 0 0 0-10.787 6.234 3 3 0 0 1-3.406.3l-4.894-2.816a3.032 3.032 0 0 0-4.133 1.135l-6.813 11.888a3.02 3.02 0 0 0 1.135 4.133l4.882 2.816a3 3 0 0 1 1.351 3.179 35.13 35.13 0 0 0 0 12.49 2.975 2.975 0 0 1-1.465 3.122l-4.882 2.816a3.032 3.032 0 0 0-1.135 4.144l6.813 11.877a3.02 3.02 0 0 0 4.133 1.135l4.894-2.827a3.02 3.02 0 0 1 3.406.3 34.892 34.892 0 0 0 10.787 6.245 3 3 0 0 1 2.078 2.714v5.677a3.043 3.043 0 0 0 3.032 3.027h13.716a3.032 3.032 0 0 0 3.032-3.032v-5.677a3 3 0 0 1 1.976-2.827 35.2 35.2 0 0 0 10.787-6.245 3.02 3.02 0 0 1 3.406-.3l4.882 2.827a3.02 3.02 0 0 0 4.133-1.135l6.869-11.877a3.043 3.043 0 0 0-1.135-4.144l-4.882-2.816a3.009 3.009 0 0 1-1.465-3.122 35.2 35.2 0 0 0 .624-6.195zm-32.621 18.8a18.916 18.916 0 1 1 16.294-16.294 18.916 18.916 0 0 1-16.294 16.294z" class="cls-3" data-name="Path 5831" transform="translate(5.394 10.846)"/>
            <path id="Path_5832" d="M183.119 124.93a41.4 41.4 0 0 0 3.225-6.722 3.588 3.588 0 0 1 3.406-2.271l6.722.091a3.6 3.6 0 0 0 3.656-3.565l.227-16.373a3.622 3.622 0 0 0-3.565-3.667l-6.733-.091a3.565 3.565 0 0 1-3.35-2.4 41.57 41.57 0 0 0-7.244-13.058 3.577 3.577 0 0 1-.284-4.1L182.585 67a3.611 3.611 0 0 0-1.226-4.882l-14.068-8.38A3.611 3.611 0 0 0 162.34 55l-3.406 5.768a3.588 3.588 0 0 1-3.747 1.7 41.739 41.739 0 0 0-14.874-.193 3.577 3.577 0 0 1-3.713-1.805l-3.281-5.87a3.6 3.6 0 0 0-4.916-1.385l-14.3 7.948a3.611 3.611 0 0 0-1.385 4.916L116 71.95a3.588 3.588 0 0 1-.409 4.1 42.125 42.125 0 0 0-4.383 6.041 41.512 41.512 0 0 0-3.225 6.733 3.6 3.6 0 0 1-3.406 2.271L97.859 91a3.622 3.622 0 0 0-3.659 3.568l-.272 16.373a3.611 3.611 0 0 0 3.565 3.667l6.733.091a3.588 3.588 0 0 1 3.406 2.407 41.511 41.511 0 0 0 7.255 12.978 3.6 3.6 0 0 1 .284 4.11l-3.406 5.768a3.622 3.622 0 0 0 1.26 4.962L127.1 153.3a3.622 3.622 0 0 0 4.951-1.26l3.406-5.779a3.565 3.565 0 0 1 3.747-1.692 42.011 42.011 0 0 0 14.874.193 3.588 3.588 0 0 1 3.713 1.794l3.281 5.882a3.611 3.611 0 0 0 4.916 1.385l14.3-7.948a3.611 3.611 0 0 0 1.385-4.916l-3.281-5.87a3.588 3.588 0 0 1 .409-4.1 42.239 42.239 0 0 0 4.318-6.059zm-44.907-.693a22.573 22.573 0 1 1 26.66-6.756 22.573 22.573 0 0 1-26.66 6.756z" class="cls-3" data-name="Path 5832" transform="translate(9.932 .087)"/>
            <path id="Path_5833" d="M457.095 152.906a47.9 47.9 0 0 0-.761-8.516 4.088 4.088 0 0 1 2-4.269l6.666-3.85a4.133 4.133 0 0 0 1.521-5.677l-9.379-16.248a4.144 4.144 0 0 0-5.677-1.51l-6.676 3.849a4.11 4.11 0 0 1-4.712-.4 47.688 47.688 0 0 0-14.761-8.527 4.11 4.11 0 0 1-2.7-3.872v-7.673a4.133 4.133 0 0 0-4.133-4.133H399.8a4.133 4.133 0 0 0-4.144 4.133v7.7a4.11 4.11 0 0 1-2.691 3.872 47.779 47.779 0 0 0-14.765 8.525 4.11 4.11 0 0 1-4.7.4l-6.676-3.849a4.133 4.133 0 0 0-5.677 1.51l-9.379 16.225a4.144 4.144 0 0 0 1.51 5.677l6.676 3.849a4.11 4.11 0 0 1 2 4.269 47.417 47.417 0 0 0 0 17.032 4.11 4.11 0 0 1-2 4.269l-6.71 3.861a4.144 4.144 0 0 0-1.51 5.677l9.458 16.225a4.133 4.133 0 0 0 5.677 1.51l6.676-3.849a4.088 4.088 0 0 1 4.7.4 47.78 47.78 0 0 0 14.761 8.527 4.11 4.11 0 0 1 2.691 3.872v7.7a4.133 4.133 0 0 0 4.144 4.133H418.6a4.133 4.133 0 0 0 4.133-4.133v-7.7a4.11 4.11 0 0 1 2.7-3.872 47.689 47.689 0 0 0 14.761-8.527 4.11 4.11 0 0 1 4.712-.4l6.676 3.849a4.144 4.144 0 0 0 5.677-1.51l9.379-16.248a4.133 4.133 0 0 0-1.521-5.677l-6.665-3.849a4.087 4.087 0 0 1-2-4.269 47.927 47.927 0 0 0 .636-8.5zm-44.589 25.638a25.854 25.854 0 1 1 22.266-22.277 25.854 25.854 0 0 1-22.266 22.277z" class="cls-3" data-name="Path 5833" transform="translate(44.774 5.414)"/>
            <path id="Rectangle_2960" d="M0 0h345.697v221.593H0z" class="cls-2" data-name="Rectangle 2960" transform="translate(108.222 187.58)"/>
            <path id="Rectangle_2961" d="M0 0h345.697v19.427H0z" class="cls-5" data-name="Rectangle 2961" transform="translate(108.222 196.46)"/>
            <path id="Path_5834" d="M116.257 185.954L118.2 188v2.736h-3.883V188l1.942-2.044m0-1.374a.613.613 0 0 0-.466.216l-2.362 2.532a1.011 1.011 0 0 0-.25.681v3.032a.818.818 0 0 0 .715.886h4.758a.818.818 0 0 0 .727-.886v-3.032a1.011 1.011 0 0 0-.25-.681l-2.362-2.475a.613.613 0 0 0-.466-.216z" class="cls-6" data-name="Path 5834" transform="translate(12.539 17.943)"/>
            <path id="Path_5835" d="M123.94 190.141l2.714-1.749c.318-.2.318-.5 0-.693l-2.714-1.76" class="cls-7" data-name="Path 5835" transform="translate(13.997 18.127)"/>
            <path id="Path_5836" d="M108.193 190.141l-2.725-1.749a.375.375 0 0 1 0-.693l2.725-1.76" class="cls-7" data-name="Path 5836" transform="translate(11.463 18.127)"/>
            <rect id="Rectangle_2962" width="267.374" height="12.07" class="cls-8" data-name="Rectangle 2962" rx="2.6" transform="translate(149.507 200.138)"/>
            <path id="Rectangle_2963" d="M0 0h88.099v3.645H0z" class="cls-5" data-name="Rectangle 2963" transform="translate(239.15 204.351)"/>
            <path id="Path_5837" d="M142.936 186.28a2.577 2.577 0 1 1-3.656 0 2.577 2.577 0 0 1 3.656 0z" class="cls-4" data-name="Path 5837" transform="translate(15.973 18.071)"/>
            <path id="Line_10" d="M0 0l1.544 1.544" class="cls-9" data-name="Line 10" transform="translate(158.908 207.996)"/>
            <path id="Path_5838" d="M366.695 188.1a2.577 2.577 0 1 1-2.577-2.577" class="cls-9" data-name="Path 5838" transform="translate(46.178 18.07)"/>
            <path id="Path_5839" d="M363.81 184.89l1.374.92-1.374.931z" class="cls-10" data-name="Path 5839" transform="translate(46.485 17.985)"/>
            <path id="Path_5840" d="M379.849 184.57l.908 2.793h2.943l-2.373 1.726.9 2.793-2.373-1.726-2.373 1.726.908-2.793-2.389-1.726h2.941z" class="cls-11" data-name="Path 5840" transform="translate(48.136 17.941)"/>
            <path id="Line_11" d="M0 0h9.594" class="cls-11" data-name="Line 11" transform="translate(438.045 203.113)"/>
            <path id="Line_12" d="M0 0h9.594" class="cls-11" data-name="Line 12" transform="translate(438.045 206.168)"/>
            <path id="Line_13" d="M0 0h9.594" class="cls-11" data-name="Line 13" transform="translate(438.045 209.233)"/>
            <path id="Path_5841" d="M443.467 171.42v221.593H97.77" class="cls-12" data-name="Path 5841" transform="translate(10.452 16.16)"/>
            <path id="Rectangle_2964" d="M0 0h345.697v8.879H0z" class="cls-6" data-name="Rectangle 2964" transform="translate(108.222 187.58)"/>
            <circle id="Ellipse_12" cx="2.078" cy="2.078" r="2.078" class="cls-13" data-name="Ellipse 12" transform="translate(113.07 189.942)"/>
            <circle id="Ellipse_13" cx="2.078" cy="2.078" r="2.078" class="cls-14" data-name="Ellipse 13" transform="translate(118.782 189.942)"/>
            <path id="Path_5842" d="M116.256 175.578a2.078 2.078 0 1 1-2.078-2.078 2.078 2.078 0 0 1 2.078 2.078z" class="cls-15" data-name="Path 5842" transform="translate(12.393 16.442)"/>
            <path id="Rectangle_2965" d="M0 0h119.505v13.512H0z" class="cls-16" data-name="Rectangle 2965" transform="translate(307.787 382.559)"/>
            <circle id="Ellipse_14" cx="15.749" cy="15.749" r="15.749" class="cls-16" data-name="Ellipse 14" transform="translate(134.53 225.288)"/>
            <path id="Rectangle_2966" d="M0 0h61.586v5.348H0z" class="cls-17" data-name="Rectangle 2966" transform="translate(173.873 234.429)"/>
            <path id="Rectangle_2967" d="M0 0h45.27v5.348H0z" class="cls-17" data-name="Rectangle 2967" transform="translate(173.873 242.309)"/>
            <path id="Rectangle_2968" d="M0 0h30.793v5.348H0z" class="cls-5" data-name="Rectangle 2968" transform="translate(319.619 234.429)"/>
            <path id="Rectangle_2969" d="M0 0h30.793v5.348H0z" class="cls-5" data-name="Rectangle 2969" transform="translate(358.065 234.429)"/>
            <path id="Line_14" d="M0 0h291.877" class="cls-18" data-name="Line 14" transform="translate(135.132 262.713)"/>
            <path id="Rectangle_2970" d="M0 0h100.328v8.073H0z" class="cls-17" data-name="Rectangle 2970" transform="translate(135.132 330.43)"/>
            <path id="Rectangle_2971" d="M0 0h139.603v3.577H0z" class="cls-5" data-name="Rectangle 2971" transform="translate(135.132 346.247)"/>
            <path id="Rectangle_2972" d="M0 0h127.419v3.577H0z" class="cls-5" data-name="Rectangle 2972" transform="translate(135.132 353.162)"/>
            <path id="Rectangle_2973" d="M0 0h117.11v3.577H0z" class="cls-5" data-name="Rectangle 2973" transform="translate(135.132 360.077)"/>
            <path id="Rectangle_2974" d="M0 0h139.603v3.577H0z" class="cls-5" data-name="Rectangle 2974" transform="translate(135.132 366.992)"/>
            <g id="Group_1293" class="cls-19" data-name="Group 1293" transform="translate(136.268 383.694)">
                <rect id="Rectangle_2975" width="48.336" height="13.512" data-name="Rectangle 2975" rx="5.95"/>
            </g>
            <rect id="Rectangle_2976" width="48.336" height="13.512" class="cls-20" data-name="Rectangle 2976" rx="5.95" transform="translate(135.132 382.559)"/>
            <g id="Group_1294" class="cls-19" data-name="Group 1294" transform="translate(191.938 383.694)">
                <rect id="Rectangle_2977" width="48.336" height="13.512" data-name="Rectangle 2977" rx="5.95"/>
            </g>
            <rect id="Rectangle_2978" width="48.336" height="13.512" class="cls-6" data-name="Rectangle 2978" rx="5.95" transform="translate(190.803 382.559)"/>
            <path id="Rectangle_2979" d="M0 0h20.381v20.381H0z" class="cls-16" data-name="Rectangle 2979" transform="translate(135.132 276.099)"/>
            <path id="Line_15" d="M0 0l20.393 20.381" class="cls-21" data-name="Line 15" transform="translate(135.132 276.099)"/>
            <path id="Line_16" d="M20.393 0L0 20.381" class="cls-21" data-name="Line 16" transform="translate(135.132 276.099)"/>
            <path id="Rectangle_2980" d="M0 0h20.381v20.381H0z" class="cls-20" data-name="Rectangle 2980" transform="translate(163.688 276.099)"/>
            <path id="Line_17" d="M0 0l20.381 20.381" class="cls-21" data-name="Line 17" transform="translate(163.688 276.099)"/>
            <path id="Line_18" d="M20.381 0L0 20.381" class="cls-21" data-name="Line 18" transform="translate(163.688 276.099)"/>
            <path id="Rectangle_2981" d="M0 0h20.381v20.381H0z" class="cls-16" data-name="Rectangle 2981" transform="translate(192.233 276.099)"/>
            <path id="Line_19" d="M0 0l20.381 20.381" class="cls-21" data-name="Line 19" transform="translate(192.233 276.099)"/>
            <path id="Line_20" d="M20.381 0L0 20.381" class="cls-21" data-name="Line 20" transform="translate(192.233 276.099)"/>
            <g id="Group_1295" class="cls-19" data-name="Group 1295" transform="translate(140.435 302.775)">
                <path id="Rectangle_2982" d="M0 0h17.997v106.005H0z" data-name="Rectangle 2982" transform="rotate(-89.09 9.141 8.997)"/>
            </g>
            <path id="Rectangle_2983" d="M0 0h17.997v106.005H0z" class="cls-16" data-name="Rectangle 2983" transform="rotate(-89.09 231.453 89.627)"/>
            <path id="Line_21" d="M0 0v88.678" class="cls-9" data-name="Line 21" transform="translate(357.656 65.781)"/>
            <path id="Path_5843" d="M323.807 162.711a1.487 1.487 0 0 0-1.431 1.533 3.963 3.963 0 0 1-3.27 3.917 4.543 4.543 0 0 1-1.419 0 3.542 3.542 0 0 1-1.294-.466 4.02 4.02 0 0 1-1.76-2.135 3.747 3.747 0 0 1 0-2.8c2.1-4.235 6.29-6.926 6.29-11.161a7.732 7.732 0 1 0-5.3-.114c-.261 2.964-3.724 5.677-5.178 9.629a8.13 8.13 0 0 0 .182 5.791 7.948 7.948 0 0 0 3.736 4.122 7.732 7.732 0 0 0 5.3.67 7.346 7.346 0 0 0 4.269-2.782 7.085 7.085 0 0 0 1.374-4.667v-.148a1.487 1.487 0 0 0-1.5-1.385zm-5.348-21.63a3.191 3.191 0 0 1 1.839 5.8 2.691 2.691 0 0 0-3.679 0 3.191 3.191 0 0 1 1.839-5.8z" class="cls-5" data-name="Path 5843" transform="translate(39.197 11.437)"/>
            <g id="Group_1296" class="cls-19" data-name="Group 1296" transform="translate(262.665 249.246)">
                <path id="Rectangle_2984" d="M0 0h197.93v116.769H0z" data-name="Rectangle 2984" transform="rotate(-7.83 197.088 13.393)"/>
                <path id="Path_5844" d="M384.863 267.34l-49.9 65.8-43.147-32.712-44.466 58.633.511 3.7 196.091-26.944-3.634-26.417z" data-name="Path 5844" transform="translate(-231.953 -220.094)"/>
                <path id="Path_5845" d="M426.009 230.9l14.659 106.732-187.087 25.657-14.67-106.732 187.1-25.706m3.883-5.121l-196.1 26.989 15.9 115.69 196.091-26.955-15.9-115.679z" data-name="Path 5845" transform="translate(-233.79 -225.73)"/>
                <circle id="Ellipse_15" cx="16.475" cy="16.475" r="16.475" data-name="Ellipse 15" transform="rotate(-50.99 90.018 -48.58)"/>
            </g>
            <path id="Rectangle_2985" d="M0 0h197.93v116.769H0z" class="cls-22" data-name="Rectangle 2985" transform="rotate(-7.83 2002.743 -1707.79)"/>
            <path id="Path_5846" d="M374.863 250.34l-49.9 65.8-43.147-32.712-44.466 58.633.511 3.7 196.091-26.944-3.634-26.417z" class="cls-16" data-name="Path 5846" transform="translate(29.357 26.85)"/>
            <path id="Path_5847" d="M416.009 213.9l14.659 106.732-187.087 25.657-14.67-106.732 187.1-25.706m3.883-5.121l-196.1 26.989 15.9 115.69 196.091-26.955-15.9-115.679z" class="cls-23" data-name="Path 5847" transform="translate(27.521 21.214)"/>
            <circle id="Ellipse_16" cx="16.475" cy="16.475" r="16.475" class="cls-8" data-name="Ellipse 16" transform="rotate(-51.19 455.528 -195.573)"/>
            <path id="Path_5848" d="M236.089 230.993l-8.879 30 10.866-30.271" class="cls-10" data-name="Path 5848" transform="translate(27.984 24.192)"/>
            <path id="Path_5849" d="M379.947 210.723l23.186 27.877-25.173-28.15" class="cls-10" data-name="Path 5849" transform="translate(48.402 21.447)"/>
            <path id="Path_5850" d="M397.12 216.709l-65.56-50.788a4 4 0 0 0-6.438-.114l-88.292 73.918" class="cls-10" data-name="Path 5850" transform="translate(29.287 15.187)"/>
            <circle id="Ellipse_17" cx="9.674" cy="9.674" r="9.674" class="cls-9" data-name="Ellipse 17" transform="rotate(-45 246.56 -370.642)"/>
            <circle id="Ellipse_18" cx="3.577" cy="3.577" r="3.577" class="cls-9" data-name="Ellipse 18" transform="translate(344.405 62.205)"/>
            <path id="Path_5851" d="M373.41 329.17c-3.7 16.873-2.271 38.548 5.927 51.22 6.472 9.992 18 13.08 28.261 20.972l-.477 4.951 4.542-5.4s-5.677-5.677-22.221-22.709c-4.054-4.178-1.135-20.7-.1-24.821 5.132-6.813 0-14.023-3.406-24.2z" class="cls-6" data-name="Path 5851" transform="translate(47.524 37.526)"/>
            <path id="Path_5852" d="M403.347 393.033l-.477 4.951 4.542-5.4-1.919-1.919a2.18 2.18 0 0 1-2.146 2.373z" class="cls-14" data-name="Path 5852" transform="translate(51.776 45.855)"/>
            <path id="Path_5853" d="M369.885 329.17c-10.843 21.38-10.4 35.1 5.291 85.033l-5.007 3.1h7.664s-.329-52.775 2.736-64.811c5.144-6.813 5.223-13.148 1.817-23.322z" class="cls-24" data-name="Path 5853" transform="translate(46.303 37.526)"/>
            <path id="Path_5854" d="M369.26 407.16h7.653v-3.1s-1.646.965-2.634 0z" class="cls-14" data-name="Path 5854" transform="translate(47.223 47.67)"/>
            <path id="Path_5855" d="M380.977 287.128c-1.908 5.825-7.278 8.675-10.071 8.152s-4.258-5.3-3.247-10.662 4.065-8.391 6.892-8.743c4.041-.499 9.071 3.146 6.426 11.253z" class="cls-8" data-name="Path 5855" transform="translate(46.963 30.302)"/>
            <path id="Rectangle_2986" d="M0 0h6.393v13.205H0z" class="cls-8" data-name="Rectangle 2986" transform="translate(421.491 319.042)"/>
            <path id="Path_5856" d="M376.057 296.109c-6.9 1.26-11.547 12.581-12.229 16.634-.409 2.407-.136 4.746 2.532 9.424 3.713 6.517 3.406 11.513 3.406 11.513h17.293c0-5.178 3.327-10.98 5.291-19.053s-4.575-20.653-16.293-18.518z" class="cls-14" data-name="Path 5856" transform="translate(46.467 33.016)"/>
            <path id="Path_5857" d="M379.79 298.779s10.037 1.215 14.17-.261c9.742-3.474 13.966-11.843 14.307-20.438h2.633s3.531 25.479-20.574 34.574z" class="cls-25" data-name="Path 5857" transform="translate(48.65 30.607)"/>
            <path id="Path_5858" d="M405.059 279.243c-1.76-1.942-.647-3.543-1.34-5.064s.148-3.27 2.055.9l-.783-5.836s2.271 1.135 2.7 10z" class="cls-8" data-name="Path 5858" transform="translate(51.858 29.409)"/>
            <path id="Path_5859" d="M379.5 297.284c5.166 1.011 4.542 10.367-1.374 15.783-5.575 5.109-21.312 9.583-42.488 12.32l-.693-2.271a74.075 74.075 0 0 0 22.153-8.436c10.326-6.348 14.947-18.838 22.402-17.396z" class="cls-25" data-name="Path 5859" transform="translate(42.576 33.192)"/>
            <path id="Path_5860" d="M336.089 320.053c-2.271-1.135-3.474.3-5.075 0s-2.407.863 1.987 1.521l-6.041.874s1.431 1.669 9.822-.136z" class="cls-8" data-name="Path 5860" transform="translate(41.494 36.231)"/>
            <path id="Path_5861" d="M368.38 276.944c-2.657 4.655 6.075 3.509 6.075 8.073s7.328 7.867 11.005 3.823 6.435-7.263-2.773-13.281c-9.379-6.159-14.307 1.385-14.307 1.385z" class="cls-26" data-name="Path 5861" transform="translate(47.036 29.938)"/>
            <path id="Path_5862" d="M163.73 155.457s4.542 18.406 14.136 18.406c22.039 0 28.329-8.425 37.152-7.846 4.678.307 16.4 7.846 16.4 7.846h6.62l-4.655-2.884S220.7 154.367 212.2 153.333c-10.764-1.306-24.98 9.379-32.667 2.123z" class="cls-6" data-name="Path 5862" transform="translate(19.386 13.696)"/>
            <path id="Path_5863" d="M223.516 171.744l-1.476-.92s2.589.159 3.406-1.964l4.655 2.884z" class="cls-14" data-name="Path 5863" transform="translate(27.284 15.814)"/>
            <path id="Path_5864" d="M318.487 56.86l-102.3 64.527L201.48 135.4v48.63" class="cls-9" data-name="Path 5864" transform="translate(24.499 .644)"/>
            <path id="Path_5865" d="M199.2 128.114c.908-1.544 3.02-4.542 4.065-2.566.67 1.272.4 3.52-.2 3.736a12.614 12.614 0 0 1-2.18.363z" class="cls-5" data-name="Path 5865" transform="translate(24.19 9.859)"/>
            <path id="Path_5866" d="M161.6 125.169c8.38-4.723 21.948 10.412 26.115 11.184 6.642 1.26 16.123-7.471 16.975-8.152l1.68 1.533s-10.378 14.9-20.2 15.181-35.27-13.715-24.57-19.746z" class="cls-14" data-name="Path 5866" transform="translate(18.748 9.773)"/>
            <path id="Path_5867" d="M199.2 128.26a3.406 3.406 0 0 1 2.044-2.759c1.59-.852 1.26-1.68 1.794-1.68s1.135 1.544-.261 2.089c0 0 .068 2.748-2.271 3.406z" class="cls-8" data-name="Path 5867" transform="translate(24.19 9.713)"/>
            <path id="Path_5868" d="M203.108 125.47c.068.579-.568.488-1.192.466-.84 0-1.692-.159-1.544.931.216 1.726 0 2.7.795 2.748s1.408.227 1.942-.057.828-2.782-.001-4.088z" class="cls-8" data-name="Path 5868" transform="translate(24.346 9.937)"/>
            <path id="Path_5869" d="M180.566 151c10.821 21.358 19.189 43.249 39.23 62.2l5.677-1.646-5.109 5.677s-41.921-24.537-53.286-39.57c-5.132-6.813-6.427-11.763-3.032-21.925z" class="cls-24" data-name="Path 5869" transform="translate(19.173 13.395)"/>
            <path id="Path_5870" d="M213.678 210.017l5.109-5.677-5.677 1.646a2.475 2.475 0 0 1-1.76 2.646z" class="cls-14" data-name="Path 5870" transform="translate(25.836 20.619)"/>
            <path id="Path_5871" d="M157.509 117.2c3.122 4.667 8.55 5.836 10.878 4.678s2.43-5.677.216-10.219-5.677-6.381-8.232-6c-3.68.62-7.199 5.082-2.862 11.541z" class="cls-8" data-name="Path 5871" transform="translate(18.272 7.248)"/>
            <path id="Path_5872" d="M159.445 129.916l7.4-2.089-3.27-11.616-8.028-4.621z" class="cls-8" data-name="Path 5872" transform="translate(18.278 8.057)"/>
            <path id="Path_5873" d="M165.378 123.712c-7.846.988-14.6 3.225-11.264 29.521 3.122 24.7 11.264 24.605 11.264 24.605s24.719 1.749 29.715-16.9a38.741 38.741 0 0 1-13.921-20.779c-3.293-13.336-9.731-17.242-15.794-16.447z" class="cls-25" data-name="Path 5873" transform="translate(17.965 9.685)"/>
            <path id="Path_5874" d="M164.655 125.054l54.331-11.354 1.283 2.952s-37.367 24.219-50.482 25.059-14.587-13.818-5.132-16.657z" class="cls-25" data-name="Path 5874" transform="translate(18.688 8.343)"/>
            <path id="Path_5875" d="M211.78 114s2.271-3.077 3.565-2.873 3.02 3.168 2.271 4.315-4.542 1.51-4.542 1.51z" class="cls-8" data-name="Path 5875" transform="translate(25.894 7.993)"/>
            <path id="Path_5876" d="M159.364 125.983a6.245 6.245 0 0 0 3.849-6.143s-1.908 1-2.464-3.145c-.25-1.9 1.612-2.271 2.464-.193 1.2.443 2.816-.375 2.566-2.566-.4-3.554 4.042-2.964 4.2-7.165.2-5.45-10.662-12.615-12.728-7.642-1.68 4.065-1.192 6.495-6.336 6.552-9.469.091.228 22.21 8.449 20.302z" class="cls-6" data-name="Path 5876" transform="translate(17.121 6.142)"/>
            <path id="Path_5877" d="M134.652 329.17c3.713 16.873 2.271 38.548-5.927 51.22-6.472 9.992-17.985 13.08-28.25 20.972l.477 4.951-4.542-5.4s5.677-5.677 22.221-22.709c4.042-4.178 1.135-20.7.1-24.821-5.144-6.813 0-14.023 3.406-24.2z" class="cls-6" data-name="Path 5877" transform="translate(10.268 37.526)"/>
            <path id="Path_5878" d="M100.485 393.033l.477 4.951-4.542-5.4 1.908-1.919a2.191 2.191 0 0 0 2.157 2.373z" class="cls-14" data-name="Path 5878" transform="translate(10.269 45.855)"/>
            <path id="Path_5879" d="M136.037 329.17c10.843 21.38 10.389 35.1-5.291 85.033l5.007 3.1h-7.642s.329-52.775-2.748-64.811c-5.132-6.813-5.212-13.148-1.805-23.322z" class="cls-24" data-name="Path 5879" transform="translate(13.628 37.526)"/>
            <path id="Path_5880" d="M134.912 407.16h-7.642v-3.1s1.646.965 2.634 0z" class="cls-14" data-name="Path 5880" transform="translate(14.448 47.67)"/>
            <path id="Path_5881" d="M124.008 287.128c1.908 5.825 7.278 8.675 10.083 8.152s4.247-5.3 3.247-10.662-4.065-8.391-6.892-8.743c-4.076-.499-9.084 3.146-6.438 11.253z" class="cls-8" data-name="Path 5881" transform="translate(13.906 30.302)"/>
            <path id="Rectangle_2987" d="M0 0h9.231v13.205H0z" class="cls-8" data-name="Rectangle 2987" transform="rotate(180 72.187 166.118)"/>
            <path id="Path_5882" d="M127.211 298.779s-10.037 1.215-14.17-.261c-9.742-3.474-13.966-11.843-14.3-20.438h-2.63s-3.509 25.445 20.574 34.54z" class="cls-25" data-name="Path 5882" transform="translate(10.203 30.607)"/>
            <path id="Path_5883" d="M98.724 279.243c1.76-1.942.647-3.543 1.34-5.064s-.159-3.27-2.067.9v-5.839s-1.487 1.135-1.908 10z" class="cls-8" data-name="Path 5883" transform="translate(10.225 29.409)"/>
            <path id="Path_5884" d="M135.989 298.186c-6.427-3.179-9.084-1.851-19.825-1.4s-1.612 26.331-1.612 55.455c0 0 9.322 5.416 32.53 0-.011.003-.874-49.002-11.093-54.055z" class="cls-25" data-name="Path 5884" transform="translate(12.235 33.051)"/>
            <path id="Path_5885" d="M131 292.138c1.59 2.8-7.562 5.257-9.992 2.441s-10.65-5.03-4.621-16.021c2.634-4.78 3.622-11.8 7.517-12.49 9.345-1.624 13.841 5.552 13.625 9.776-.284 5.836-2.566 9.356-4.916 10.5-1.613.786-4.053 1.411-1.613 5.794z" class="cls-15" data-name="Path 5885" transform="translate(12.681 28.948)"/>
            <path id="Path_5886" d="M128.926 296.869c11.127-.057 19.371 6.063 27.489 6.813 9.458.9 18.871-5.53 20.756-10.594l4.247-.738s-6.438 13.625-24.582 19.564c-9.084 3-20.279 3.463-27.046.352s-8.665-15.366-.864-15.397z" class="cls-25" data-name="Path 5886" transform="translate(13.984 32.539)"/>
            <path id="Path_5887" d="M170.864 293.99c-1.34-1.987.7-4.031.976-5.53s1.056-2.589 1.794-2.748c1.26-.261.886 1.5.477 3.179a.227.227 0 0 0 .307.261 12.285 12.285 0 0 1 5.45-1.306c.67.068 1.079.795-1.612 2.135a5.848 5.848 0 0 0-3.145 3.27z" class="cls-8" data-name="Path 5887" transform="translate(20.291 31.637)"/>
            <g id="Group_1297" class="cls-19" data-name="Group 1297" transform="translate(191.234 404.427)">
                <path id="Rectangle_2988" d="M0 0h126.318v33.643H0z" data-name="Rectangle 2988"/>
                <path id="Rectangle_2989" d="M0 0h20.381v20.381H0z" data-name="Rectangle 2989" transform="translate(8.482 6.631)"/>
                <path id="Line_22" d="M0 0l20.381 20.381" class="cls-27" data-name="Line 22" transform="translate(8.482 6.631)"/>
                <path id="Line_23" d="M20.381 0L0 20.381" class="cls-27" data-name="Line 23" transform="translate(8.482 6.631)"/>
                <path id="Rectangle_2990" d="M0 0h76.131v2.396H0z" data-name="Rectangle 2990" transform="translate(35.959 11.139)"/>
                <path id="Rectangle_2991" d="M0 0h76.131v2.396H0z" data-name="Rectangle 2991" transform="translate(35.959 20.109)"/>
                <path id="Rectangle_2992" d="M0 0h67.922v2.396H0z" data-name="Rectangle 2992" transform="translate(35.959 15.624)"/>
            </g>
            <path id="Rectangle_2993" d="M0 0h126.318v33.643H0z" class="cls-16" data-name="Rectangle 2993" transform="translate(190.099 403.292)"/>
            <path id="Rectangle_2994" d="M0 0h20.381v20.381H0z" class="cls-28" data-name="Rectangle 2994" transform="translate(198.581 409.923)"/>
            <path id="Line_24" d="M0 0l20.381 20.381" class="cls-29" data-name="Line 24" transform="translate(198.581 409.923)"/>
            <path id="Line_25" d="M20.381 0L0 20.381" class="cls-29" data-name="Line 25" transform="translate(198.581 409.923)"/>
            <path id="Rectangle_2995" d="M0 0h76.131v2.396H0z" class="cls-30" data-name="Rectangle 2995" transform="translate(226.058 414.43)"/>
            <path id="Rectangle_2996" d="M0 0h76.131v2.396H0z" class="cls-30" data-name="Rectangle 2996" transform="translate(226.058 423.4)"/>
            <path id="Rectangle_2997" d="M0 0h67.922v2.396H0z" class="cls-30" data-name="Rectangle 2997" transform="translate(226.058 418.915)"/>
            <g id="Group_1298" class="cls-19" data-name="Group 1298" transform="translate(170.024 418.915)">
                <path id="Rectangle_2998" d="M0 0h126.318v33.643H0z" data-name="Rectangle 2998"/>
                <path id="Rectangle_2999" d="M0 0h20.381v20.381H0z" data-name="Rectangle 2999" transform="translate(8.493 6.631)"/>
                <path id="Line_26" d="M0 0l20.381 20.381" class="cls-27" data-name="Line 26" transform="translate(8.493 6.631)"/>
                <path id="Line_27" d="M20.381 0L0 20.381" class="cls-27" data-name="Line 27" transform="translate(8.493 6.631)"/>
                <path id="Rectangle_3000" d="M0 0h76.131v2.396H0z" data-name="Rectangle 3000" transform="translate(35.971 11.139)"/>
                <path id="Rectangle_3001" d="M0 0h76.131v2.396H0z" data-name="Rectangle 3001" transform="translate(35.971 20.109)"/>
                <path id="Rectangle_3002" d="M0 0h67.922v2.396H0z" data-name="Rectangle 3002" transform="translate(35.971 15.624)"/>
            </g>
            <path id="Rectangle_3003" d="M0 0h126.318v33.643H0z" class="cls-20" data-name="Rectangle 3003" transform="translate(168.889 417.78)"/>
            <path id="Rectangle_3004" d="M0 0h20.381v20.381H0z" class="cls-16" data-name="Rectangle 3004" transform="translate(177.382 424.411)"/>
            <path id="Line_28" d="M0 0l20.381 20.381" class="cls-31" data-name="Line 28" transform="translate(177.382 424.411)"/>
            <path id="Line_29" d="M20.381 0L0 20.381" class="cls-31" data-name="Line 29" transform="translate(177.382 424.411)"/>
            <path id="Rectangle_3005" d="M0 0h76.131v2.396H0z" class="cls-32" data-name="Rectangle 3005" transform="translate(204.86 428.919)"/>
            <path id="Rectangle_3006" d="M0 0h76.131v2.396H0z" class="cls-32" data-name="Rectangle 3006" transform="translate(204.86 437.889)"/>
            <path id="Rectangle_3007" d="M0 0h67.922v2.396H0z" class="cls-32" data-name="Rectangle 3007" transform="translate(204.86 433.404)"/>
            <circle id="Ellipse_19" cx="3.315" cy="3.315" r="3.315" class="cls-3" data-name="Ellipse 19" transform="translate(281.877 164.554)"/>
            <circle id="Ellipse_20" cx="6.506" cy="6.506" r="6.506" class="cls-3" data-name="Ellipse 20" transform="translate(266.707 139.653)"/>
            <circle id="Ellipse_21" cx="3.724" cy="3.724" r="3.724" class="cls-3" data-name="Ellipse 21" transform="translate(302.201 148.124)"/>
            <circle id="Ellipse_22" cx="5.246" cy="5.246" r="5.246" class="cls-3" data-name="Ellipse 22" transform="translate(59.205 124.631)"/>
            <circle id="Ellipse_23" cx="4.508" cy="4.508" r="4.508" class="cls-3" data-name="Ellipse 23" transform="translate(72.898 109.019)"/>
            <circle id="Ellipse_24" cx="3.985" cy="3.985" r="3.985" class="cls-3" data-name="Ellipse 24" transform="translate(483.599 215.887)"/>
            <circle id="Ellipse_25" cx="8.675" cy="8.675" r="8.675" class="cls-3" data-name="Ellipse 25" transform="rotate(-45 511.602 -500.399)"/>
        </g>
    </g>
</svg>
