<svg xmlns="http://www.w3.org/2000/svg" width="40" height="40.004" viewBox="0 0 40 40.004">
    <defs>
        <style>
            .cls-1{fill:#423eaa}
        </style>
    </defs>
    <g id="broken-link" transform="translate(-.003 -.001)">
        <path id="Path_5889" d="M42.735 2.766a9.473 9.473 0 0 0-13.379 0l-6.689 6.69a1.455 1.455 0 1 0 2.058 2.058l6.689-6.689a6.549 6.549 0 0 1 9.262 9.263l-8.746 8.748a6.559 6.559 0 0 1-9.263 0 1.455 1.455 0 0 0-2.058 2.058 9.472 9.472 0 0 0 13.379 0l8.748-8.748a9.483 9.483 0 0 0 0-13.379z" class="cls-1" data-name="Path 5889" transform="translate(-5.494)"/>
        <path id="Path_5890" d="M19.746 34.337L14.085 40a6.55 6.55 0 0 1-9.263-9.263l8.234-8.237a6.574 6.574 0 0 1 9.262 0 1.455 1.455 0 1 0 2.058-2.058 9.472 9.472 0 0 0-13.379 0l-8.233 8.236a9.46 9.46 0 0 0 13.379 13.378L21.8 36.4a1.455 1.455 0 0 0-2.057-2.058z" class="cls-1" data-name="Path 5890" transform="translate(0 -4.813)"/>
        <path id="Path_5891" d="M33.458 44.007A1.456 1.456 0 0 0 32 45.462v4.366a1.455 1.455 0 1 0 2.911 0v-4.366a1.455 1.455 0 0 0-1.453-1.455z" class="cls-1" data-name="Path 5891" transform="translate(-8.712 -11.981)"/>
        <path id="Path_5892" d="M40.246 42.434a1.455 1.455 0 0 0-2.058 2.058l3.087 3.087a1.455 1.455 0 0 0 2.058-2.058z" class="cls-1" data-name="Path 5892" transform="translate(-10.28 -11.437)"/>
        <path id="Path_5893" d="M43.79 36.007h-4.367a1.455 1.455 0 1 0 0 2.911h4.367a1.455 1.455 0 1 0 0-2.911z" class="cls-1" data-name="Path 5893" transform="translate(-10.337 -9.803)"/>
        <path id="Path_5894" d="M17.458 10.284a1.456 1.456 0 0 0 1.455-1.455V4.462a1.455 1.455 0 0 0-2.911 0v4.367a1.456 1.456 0 0 0 1.456 1.455z" class="cls-1" data-name="Path 5894" transform="translate(-4.356 -.818)"/>
        <path id="Path_5895" d="M9.275 12.336a1.455 1.455 0 1 0 2.058-2.058L8.246 7.191a1.455 1.455 0 0 0-2.058 2.058z" class="cls-1" data-name="Path 5895" transform="translate(-1.568 -1.841)"/>
        <path id="Path_5896" d="M5.423 19.918H9.79a1.455 1.455 0 0 0 0-2.911H5.423a1.455 1.455 0 0 0 0 2.911z" class="cls-1" data-name="Path 5896" transform="translate(-1.08 -4.63)"/>
    </g>
</svg>
