<svg xmlns="http://www.w3.org/2000/svg" width="30" height="42" viewBox="0 0 30 42">
    <defs>
        <style>
            .cls-1{fill:#423eaa}
        </style>
    </defs>
    <g id="pencil-case" transform="translate(-75.447)">
        <g id="Group_1300" data-name="Group 1300" transform="translate(80.323 22.734)">
            <g id="Group_1299" data-name="Group 1299">
                <path id="Path_5897" d="M138.243 286a1.445 1.445 0 1 0 1.445 1.445 1.446 1.446 0 0 0-1.445-1.445z" class="cls-1" data-name="Path 5897" transform="translate(-136.798 -286)"/>
            </g>
        </g>
        <g id="Group_1302" data-name="Group 1302" transform="translate(80.323 15.117)">
            <g id="Group_1301" data-name="Group 1301">
                <path id="Path_5898" d="M138.243 326a1.445 1.445 0 0 0-1.445 1.445v18.211a1.445 1.445 0 0 0 2.891 0v-18.211a1.445 1.445 0 0 0-1.446-1.445z" class="cls-1" data-name="Path 5898" transform="translate(-136.798 -326)"/>
            </g>
        </g>
        <g id="Group_1304" data-name="Group 1304" transform="translate(75.447)">
            <g id="Group_1303" data-name="Group 1303">
                <path id="Path_5899" d="M104.42.616a.824.824 0 0 0-.52-.568.84.84 0 0 0-.771.11c-.83.6-5.006 3.687-5.686 5.531A4.046 4.046 0 0 0 97.669 9a39.027 39.027 0 0 0-3 5.381V.82a.826.826 0 0 0-.832-.82H87.19a.826.826 0 0 0-.831.82V16.9h-.149l-1.419-5.451v-.008L83.5 6.686a.822.822 0 0 0-.027-.081l-.01-.024-.025-.055-.016-.026a.661.661 0 0 0-.03-.05l-.017-.024a.736.736 0 0 0-.036-.047l-.01-.013L78.4.631a.837.837 0 0 0-.842-.263.825.825 0 0 0-.606.632l-1.49 7.434v.016c0 .021-.007.043-.009.064s0 .018 0 .027v.09c0 .01 0 .042.006.062s0 .017 0 .025a.817.817 0 0 0 .018.086l1.289 4.749.865 3.377a2.485 2.485 0 0 0-1.338.685 2.43 2.43 0 0 0-.73 1.74 2.467 2.467 0 0 0 1.662 2.32V37.9a4.133 4.133 0 0 0 4.15 4.1h16.616a4.133 4.133 0 0 0 4.154-4.1V21.68a2.49 2.49 0 0 0 .931-.581 2.429 2.429 0 0 0 .73-1.74 2.473 2.473 0 0 0-2.023-2.417 40 40 0 0 0 1.065-6.03 4.1 4.1 0 0 0 2.4-2.418c.68-1.848-.57-6.886-.828-7.878zm-5.646 9.7a4.193 4.193 0 0 0 2.379.874 40.43 40.43 0 0 1-1.073 5.709h-4.748a47.319 47.319 0 0 1 3.443-6.583zM88.021 1.64h4.985v1.887h-1.662a.82.82 0 1 0 0 1.641h1.662v1.64h-1.662a.82.82 0 1 0 0 1.641h1.662v1.641h-1.662a.82.82 0 1 0 0 1.641h1.662v1.641h-1.662a.82.82 0 1 0 0 1.641h1.662V16.9h-4.985zm-9.773 1.349l3.408 3.966a3.844 3.844 0 0 1-2.028 1.312 3.885 3.885 0 0 1-2.412-.132zM77.5 9.925a5.526 5.526 0 0 0 1.12.115 5.63 5.63 0 0 0 1.44-.188 5.526 5.526 0 0 0 2.254-1.2l.871 3.21 1.31 5.038h-5.162l-.96-3.749v-.011zM100.483 37.9a2.48 2.48 0 0 1-2.492 2.461H81.375a2.48 2.48 0 0 1-2.492-2.461V21.82h21.6zm1.662-18.539a.809.809 0 0 1-.243.58.831.831 0 0 1-.587.241H78.052a.827.827 0 0 1-.831-.82.809.809 0 0 1 .243-.58.83.83 0 0 1 .587-.241h23.262a.827.827 0 0 1 .831.818zm1.541-11.426a2.474 2.474 0 0 1-1.809 1.562 2.5 2.5 0 0 1-1.387-.097 2.477 2.477 0 0 1-1.153-.851A2.433 2.433 0 0 1 99 6.25c.311-.844 2.338-2.645 4.1-4.014.487 2.177.9 4.854.585 5.697z" class="cls-1" data-name="Path 5899" transform="translate(-75.447)"/>
            </g>
        </g>
    </g>
</svg>
